<svg width="34" height="34" viewBox="0 0 34 34" fill="none" xmlns="http://www.w3.org/2000/svg">
<path d="M27.625 11.9531H6.375C5.88186 11.9531 5.40892 12.149 5.06022 12.4977C4.71152 12.8464 4.51562 13.3194 4.51562 13.8125V26.5625C4.51562 27.0556 4.71152 27.5286 5.06022 27.8773C5.40892 28.226 5.88186 28.4219 6.375 28.4219H27.625C28.1181 28.4219 28.5911 28.226 28.9398 27.8773C29.2885 27.5286 29.4844 27.0556 29.4844 26.5625V13.8125C29.4844 13.3194 29.2885 12.8464 28.9398 12.4977C28.5911 12.149 28.1181 11.9531 27.625 11.9531ZM27.8906 26.5625C27.8906 26.6329 27.8626 26.7005 27.8128 26.7503C27.763 26.8001 27.6954 26.8281 27.625 26.8281H6.375C6.30455 26.8281 6.23699 26.8001 6.18717 26.7503C6.13736 26.7005 6.10938 26.6329 6.10938 26.5625V13.8125C6.10938 13.7421 6.13736 13.6745 6.18717 13.6247C6.23699 13.5749 6.30455 13.5469 6.375 13.5469H27.625C27.6954 13.5469 27.763 13.5749 27.8128 13.6247C27.8626 13.6745 27.8906 13.7421 27.8906 13.8125V26.5625ZM6.64062 8.5C6.64062 8.28866 6.72458 8.08597 6.87402 7.93652C7.02347 7.78708 7.22616 7.70312 7.4375 7.70312H26.5625C26.7738 7.70312 26.9765 7.78708 27.126 7.93652C27.2754 8.08597 27.3594 8.28866 27.3594 8.5C27.3594 8.71134 27.2754 8.91403 27.126 9.06348C26.9765 9.21292 26.7738 9.29688 26.5625 9.29688H7.4375C7.22616 9.29688 7.02347 9.21292 6.87402 9.06348C6.72458 8.91403 6.64062 8.71134 6.64062 8.5ZM8.76562 4.25C8.76562 4.03866 8.84958 3.83597 8.99902 3.68652C9.14847 3.53708 9.35116 3.45313 9.5625 3.45312H24.4375C24.6488 3.45312 24.8515 3.53708 25.001 3.68652C25.1504 3.83597 25.2344 4.03866 25.2344 4.25C25.2344 4.46134 25.1504 4.66403 25.001 4.81348C24.8515 4.96292 24.6488 5.04688 24.4375 5.04688H9.5625C9.35116 5.04688 9.14847 4.96292 8.99902 4.81348C8.84958 4.66403 8.76562 4.46134 8.76562 4.25Z" fill="white"/>
</svg>
