<svg width="32" height="32" viewBox="0 0 32 32" fill="none" xmlns="http://www.w3.org/2000/svg">
<path d="M29.0002 8.25H24.8102L28.5302 4.53C28.6039 4.46134 28.663 4.37854 28.704 4.28654C28.745 4.19454 28.767 4.09523 28.7688 3.99452C28.7706 3.89382 28.752 3.79379 28.7143 3.7004C28.6766 3.60701 28.6205 3.52218 28.5492 3.45096C28.478 3.37974 28.3932 3.3236 28.2998 3.28588C28.2064 3.24816 28.1064 3.22963 28.0057 3.23141C27.905 3.23319 27.8057 3.25523 27.7137 3.29622C27.6217 3.33721 27.5389 3.39631 27.4702 3.47L23.7502 7.19V3C23.7502 2.80109 23.6712 2.61032 23.5305 2.46967C23.3899 2.32902 23.1991 2.25 23.0002 2.25C22.8013 2.25 22.6105 2.32902 22.4699 2.46967C22.3292 2.61032 22.2502 2.80109 22.2502 3V7.51875C20.761 6.54301 18.9812 6.10977 17.2101 6.29189C15.4391 6.474 13.7847 7.26036 12.5252 8.51875C7.52145 13.425 3.75645 25.1812 3.4227 26.25C3.26651 26.5766 3.21546 26.9436 3.27659 27.3005C3.33773 27.6573 3.50803 27.9864 3.76403 28.2424C4.02003 28.4984 4.34913 28.6687 4.70597 28.7299C5.06282 28.791 5.42984 28.7399 5.75645 28.5837C6.81895 28.25 18.584 24.4825 23.4802 19.4875C24.7398 18.2277 25.527 16.5724 25.7091 14.8002C25.8912 13.028 25.4572 11.2472 24.4802 9.7575H29.0002C29.1991 9.7575 29.3899 9.67848 29.5305 9.53783C29.6712 9.39718 29.7502 9.20641 29.7502 9.0075C29.7502 8.80859 29.6712 8.61782 29.5305 8.47717C29.3899 8.33652 29.1991 8.2575 29.0002 8.2575V8.25ZM22.414 18.4263C21.2502 19.625 19.6252 20.75 17.8365 21.78L14.529 18.4713C14.3882 18.3305 14.1974 18.2515 13.9983 18.2515C13.7993 18.2515 13.6084 18.3305 13.4677 18.4713C13.327 18.612 13.2479 18.8029 13.2479 19.0019C13.2479 19.2009 13.327 19.3918 13.4677 19.5325L16.4677 22.5325C11.2565 25.2825 5.3427 27.135 5.25145 27.1575C5.20577 27.1719 5.16143 27.1903 5.11895 27.2125C5.07175 27.2372 5.01788 27.2463 4.9652 27.2382C4.91251 27.2302 4.86377 27.2055 4.82609 27.1679C4.78841 27.1302 4.76375 27.0814 4.75572 27.0288C4.74769 26.9761 4.75671 26.9222 4.78145 26.875C4.80365 26.835 4.82247 26.7932 4.8377 26.75C4.8752 26.625 8.44395 15.215 13.0602 10.125L17.469 14.5325C17.5376 14.6062 17.6204 14.6653 17.7124 14.7063C17.8044 14.7473 17.9037 14.7693 18.0044 14.7711C18.1051 14.7729 18.2052 14.7543 18.2986 14.7166C18.3919 14.6789 18.4768 14.6228 18.548 14.5515C18.6192 14.4803 18.6754 14.3955 18.7131 14.3021C18.7508 14.2087 18.7693 14.1087 18.7675 14.008C18.7658 13.9073 18.7437 13.808 18.7027 13.716C18.6617 13.624 18.6026 13.5412 18.529 13.4725L14.1415 9.085C15.3949 8.09958 16.9775 7.63044 18.5654 7.77358C20.1534 7.91673 21.6266 8.66133 22.6835 9.85501C23.7405 11.0487 24.3013 12.6012 24.2512 14.1948C24.2011 15.7884 23.5438 17.3026 22.414 18.4275V18.4263Z" fill="white"/>
</svg>
