<svg width="34" height="34" viewBox="0 0 34 34" fill="none" xmlns="http://www.w3.org/2000/svg">
<path d="M30.8125 16.2031H29.4578C29.2602 13.1754 27.9682 10.3228 25.8227 8.17729C23.6772 6.03179 20.8246 4.73979 17.7969 4.54219V3.1875C17.7969 2.97616 17.7129 2.77347 17.5635 2.62402C17.414 2.47458 17.2113 2.39062 17 2.39062C16.7887 2.39062 16.586 2.47458 16.4365 2.62402C16.2871 2.77347 16.2031 2.97616 16.2031 3.1875V4.54219C13.1754 4.73979 10.3228 6.03179 8.17729 8.17729C6.03179 10.3228 4.73979 13.1754 4.54219 16.2031H3.1875C2.97616 16.2031 2.77347 16.2871 2.62402 16.4365C2.47458 16.586 2.39062 16.7887 2.39062 17C2.39062 17.2113 2.47458 17.414 2.62402 17.5635C2.77347 17.7129 2.97616 17.7969 3.1875 17.7969H4.54219C4.73979 20.8246 6.03179 23.6772 8.17729 25.8227C10.3228 27.9682 13.1754 29.2602 16.2031 29.4578V30.8125C16.2031 31.0238 16.2871 31.2265 16.4365 31.376C16.586 31.5254 16.7887 31.6094 17 31.6094C17.2113 31.6094 17.414 31.5254 17.5635 31.376C17.7129 31.2265 17.7969 31.0238 17.7969 30.8125V29.4578C20.8246 29.2602 23.6772 27.9682 25.8227 25.8227C27.9682 23.6772 29.2602 20.8246 29.4578 17.7969H30.8125C31.0238 17.7969 31.2265 17.7129 31.376 17.5635C31.5254 17.414 31.6094 17.2113 31.6094 17C31.6094 16.7887 31.5254 16.586 31.376 16.4365C31.2265 16.2871 31.0238 16.2031 30.8125 16.2031ZM17.7969 27.8587V26.5625C17.7969 26.3512 17.7129 26.1485 17.5635 25.999C17.414 25.8496 17.2113 25.7656 17 25.7656C16.7887 25.7656 16.586 25.8496 16.4365 25.999C16.2871 26.1485 16.2031 26.3512 16.2031 26.5625V27.8587C13.5989 27.6646 11.1509 26.5422 9.30437 24.6956C7.45782 22.8491 6.33539 20.4011 6.14125 17.7969H7.4375C7.64884 17.7969 7.85153 17.7129 8.00098 17.5635C8.15042 17.414 8.23438 17.2113 8.23438 17C8.23438 16.7887 8.15042 16.586 8.00098 16.4365C7.85153 16.2871 7.64884 16.2031 7.4375 16.2031H6.14125C6.33539 13.5989 7.45782 11.1509 9.30437 9.30437C11.1509 7.45782 13.5989 6.33539 16.2031 6.14125V7.4375C16.2031 7.64884 16.2871 7.85153 16.4365 8.00098C16.586 8.15042 16.7887 8.23438 17 8.23438C17.2113 8.23438 17.414 8.15042 17.5635 8.00098C17.7129 7.85153 17.7969 7.64884 17.7969 7.4375V6.14125C20.4011 6.33539 22.8491 7.45782 24.6956 9.30437C26.5422 11.1509 27.6646 13.5989 27.8587 16.2031H26.5625C26.3512 16.2031 26.1485 16.2871 25.999 16.4365C25.8496 16.586 25.7656 16.7887 25.7656 17C25.7656 17.2113 25.8496 17.414 25.999 17.5635C26.1485 17.7129 26.3512 17.7969 26.5625 17.7969H27.8587C27.6646 20.4011 26.5422 22.8491 24.6956 24.6956C22.8491 26.5422 20.4011 27.6646 17.7969 27.8587ZM17 11.9531C16.0018 11.9531 15.0261 12.2491 14.1961 12.8037C13.3662 13.3582 12.7193 14.1464 12.3373 15.0686C11.9553 15.9908 11.8554 17.0056 12.0501 17.9846C12.2448 18.9636 12.7255 19.8629 13.4313 20.5687C14.1371 21.2745 15.0364 21.7552 16.0154 21.9499C16.9944 22.1446 18.0092 22.0447 18.9314 21.6627C19.8536 21.2807 20.6418 20.6338 21.1963 19.8039C21.7509 18.9739 22.0469 17.9982 22.0469 17C22.0469 15.6615 21.5152 14.3778 20.5687 13.4313C19.6222 12.4848 18.3385 11.9531 17 11.9531ZM17 20.4531C16.317 20.4531 15.6494 20.2506 15.0815 19.8712C14.5137 19.4917 14.0711 18.9524 13.8097 18.3215C13.5484 17.6905 13.48 16.9962 13.6132 16.3263C13.7465 15.6565 14.0753 15.0412 14.5583 14.5583C15.0412 14.0753 15.6565 13.7465 16.3263 13.6132C16.9962 13.48 17.6905 13.5484 18.3215 13.8097C18.9524 14.0711 19.4917 14.5137 19.8712 15.0815C20.2506 15.6494 20.4531 16.317 20.4531 17C20.4531 17.9158 20.0893 18.7941 19.4417 19.4417C18.7941 20.0893 17.9158 20.4531 17 20.4531Z" fill="white"/>
</svg>
