<svg width="32" height="32" viewBox="0 0 32 32" fill="none" xmlns="http://www.w3.org/2000/svg">
<path d="M27.5896 15.5362L16.5896 1.53623C16.5194 1.44682 16.4298 1.37453 16.3276 1.32481C16.2254 1.2751 16.1132 1.24927 15.9996 1.24927C15.8859 1.24927 15.7738 1.2751 15.6715 1.32481C15.5693 1.37453 15.4798 1.44682 15.4096 1.53623L4.40959 15.5362C4.30557 15.6684 4.24902 15.8318 4.24902 16C4.24902 16.1682 4.30557 16.3315 4.40959 16.4637L15.4096 30.4637C15.4798 30.5531 15.5693 30.6254 15.6715 30.6752C15.7738 30.7249 15.8859 30.7507 15.9996 30.7507C16.1132 30.7507 16.2254 30.7249 16.3276 30.6752C16.4298 30.6254 16.5194 30.5531 16.5896 30.4637L27.5896 16.4637C27.6936 16.3315 27.7501 16.1682 27.7501 16C27.7501 15.8318 27.6936 15.6684 27.5896 15.5362ZM16.7496 4.16873L25.8196 15.7125L16.7496 19.8375V4.16873ZM15.2496 19.835L6.17959 15.71L15.2496 4.16873V19.835ZM15.2496 21.4825V27.8312L7.48959 17.9562L15.2496 21.4825ZM16.7496 21.4825L24.5096 17.9562L16.7496 27.8312V21.4825Z" fill="white"/>
</svg>
