<svg width="30" height="28" viewBox="0 0 30 28" fill="none" xmlns="http://www.w3.org/2000/svg">
<path d="M18 4.25H21C21.3315 4.25 21.6495 4.1183 21.8839 3.88388C22.1183 3.64946 22.25 3.33152 22.25 3C22.25 2.80109 22.329 2.61032 22.4697 2.46967C22.6103 2.32902 22.8011 2.25 23 2.25C23.1989 2.25 23.3897 2.32902 23.5303 2.46967C23.671 2.61032 23.75 2.80109 23.75 3C23.75 3.72935 23.4603 4.42882 22.9445 4.94454C22.4288 5.46027 21.7293 5.75 21 5.75H18C17.6685 5.75 17.3505 5.8817 17.1161 6.11612C16.8817 6.35054 16.75 6.66848 16.75 7C16.75 7.19891 16.671 7.38968 16.5303 7.53033C16.3897 7.67098 16.1989 7.75 16 7.75C15.8011 7.75 15.6103 7.67098 15.4697 7.53033C15.329 7.38968 15.25 7.19891 15.25 7C15.25 6.27065 15.5397 5.57118 16.0555 5.05546C16.5712 4.53973 17.2707 4.25 18 4.25ZM12 7.75C12.1989 7.75 12.3897 7.67098 12.5303 7.53033C12.671 7.38968 12.75 7.19891 12.75 7C12.75 5.60761 13.3031 4.27226 14.2877 3.28769C15.2723 2.30312 16.6076 1.75 18 1.75H19C19.1989 1.75 19.3897 1.67098 19.5303 1.53033C19.671 1.38968 19.75 1.19891 19.75 1C19.75 0.801088 19.671 0.610322 19.5303 0.46967C19.3897 0.329018 19.1989 0.25 19 0.25H18C16.2104 0.251985 14.4947 0.963781 13.2292 2.22922C11.9638 3.49466 11.252 5.2104 11.25 7C11.25 7.19891 11.329 7.38968 11.4697 7.53033C11.6103 7.67098 11.8011 7.75 12 7.75ZM29.75 27C29.75 27.1989 29.671 27.3897 29.5303 27.5303C29.3897 27.671 29.1989 27.75 29 27.75H1C0.801088 27.75 0.610322 27.671 0.46967 27.5303C0.329018 27.3897 0.25 27.1989 0.25 27C0.25 26.8011 0.329018 26.6103 0.46967 26.4697C0.610322 26.329 0.801088 26.25 1 26.25H3.25C5 22.75 7.025 17.54 7.235 11.9263C7.25155 11.4748 7.443 11.0475 7.76888 10.7347C8.09477 10.4219 8.52953 10.2481 8.98125 10.25H20.0225C20.4733 10.2495 20.9069 10.4231 21.2329 10.7344C21.5589 11.0458 21.7522 11.4709 21.7725 11.9213C22.04 18.0563 24.865 23.75 26.285 26.25H29C29.1989 26.25 29.3897 26.329 29.5303 26.4697C29.671 26.6103 29.75 26.8011 29.75 27ZM20.0225 11.75H17.75C17.7575 11.8075 17.7625 11.8675 17.765 11.9263C17.9775 17.54 20 22.75 21.75 26.25H24.5688C23.0138 23.3625 20.5287 17.8875 20.2687 11.9862C20.2653 11.923 20.2379 11.8634 20.1922 11.8196C20.1465 11.7757 20.0858 11.7509 20.0225 11.75ZM4.9175 26.25H20.0825C18.35 22.6325 16.475 17.51 16.2687 11.9825C16.2643 11.9193 16.236 11.8601 16.1896 11.8169C16.1432 11.7738 16.0821 11.7498 16.0187 11.75H8.98125C8.91787 11.7498 8.8568 11.7738 8.81038 11.8169C8.76397 11.8601 8.73569 11.9193 8.73125 11.9825C8.525 17.51 6.65 22.6325 4.9175 26.25Z" fill="white"/>
</svg>
