<svg width="32" height="32" viewBox="0 0 32 32" fill="none" xmlns="http://www.w3.org/2000/svg">
<path fill-rule="evenodd" clip-rule="evenodd" d="M27.475 17.3024C27.8989 17.3866 28.2976 17.5675 28.64 17.8313V17.8338C29.0211 18.1248 29.3219 18.5082 29.5139 18.9476C29.706 19.387 29.783 19.8681 29.7377 20.3455C29.6925 20.823 29.5264 21.281 29.2552 21.6765C28.984 22.072 28.6165 22.392 28.1875 22.6063C28.1742 22.6135 28.1604 22.6198 28.1463 22.625L23.2938 24.69C23.2575 24.7049 23.2204 24.7175 23.1825 24.7275L15.1825 26.7275C15.1228 26.7425 15.0615 26.75 15 26.75H2C1.53587 26.75 1.09075 26.5656 0.762563 26.2375C0.434374 25.9093 0.25 25.4641 0.25 25V20C0.25 19.5359 0.434374 19.0908 0.762563 18.7626C1.09075 18.4344 1.53587 18.25 2 18.25H5.69L8.59125 15.3488C8.93848 14.9993 9.35162 14.7222 9.80673 14.5336C10.2618 14.345 10.7499 14.2486 11.2425 14.25H17.5C18.0256 14.25 18.5434 14.3775 19.0089 14.6215C19.4744 14.8655 19.8738 15.2188 20.1729 15.651C20.4719 16.0833 20.6616 16.5816 20.7258 17.1033C20.79 17.625 20.7266 18.1544 20.5413 18.6463L26.1963 17.3463C26.6134 17.2333 27.051 17.2183 27.475 17.3024ZM1.75 20V25C1.75 25.0663 1.77634 25.1299 1.82322 25.1768C1.87011 25.2237 1.9337 25.25 2 25.25H5.25V19.75H2C1.9337 19.75 1.87011 19.7764 1.82322 19.8232C1.77634 19.8701 1.75 19.9337 1.75 20ZM22.76 23.2838L27.535 21.25C27.8245 21.0986 28.0479 20.8456 28.1622 20.5395C28.2766 20.2335 28.2738 19.8959 28.1544 19.5918C28.0351 19.2877 27.8075 19.0383 27.5156 18.8917C27.2236 18.7451 26.8877 18.7116 26.5725 18.7975L26.5425 18.805L18.1675 20.7313C18.1125 20.7438 18.0564 20.7501 18 20.75H14C13.8011 20.75 13.6103 20.671 13.4697 20.5303C13.329 20.3897 13.25 20.1989 13.25 20C13.25 19.8011 13.329 19.6103 13.4697 19.4697C13.6103 19.329 13.8011 19.25 14 19.25H17.5C17.9641 19.25 18.4092 19.0656 18.7374 18.7375C19.0656 18.4093 19.25 17.9641 19.25 17.5C19.25 17.0359 19.0656 16.5908 18.7374 16.2626C18.4092 15.9344 17.9641 15.75 17.5 15.75H11.2425C10.9469 15.7491 10.654 15.8069 10.3809 15.92C10.1077 16.033 9.85974 16.1992 9.65125 16.4088L6.75 19.3113V25.25H14.9075L22.76 23.2838Z" fill="#858593"/>
<path d="M26.8867 4.95999C26.2226 4.18791 25.4747 3.49277 24.657 2.88749C24.6023 2.84901 24.5372 2.82837 24.4704 2.82837C24.4036 2.82837 24.3384 2.84901 24.2837 2.88749C23.4661 3.49277 22.7182 4.18791 22.054 4.95999C20.5819 6.66163 19.8037 8.45216 19.8037 10.138C19.8037 11.3819 20.2954 12.575 21.1705 13.4546C22.0457 14.3342 23.2327 14.8284 24.4704 14.8284C25.7081 14.8284 26.895 14.3342 27.7702 13.4546C28.6454 12.575 29.137 11.3819 29.137 10.138C29.137 8.45216 28.3589 6.66163 26.8867 4.95999ZM24.4704 13.495C23.4058 13.4937 22.5565 13.585 21.8037 12.8284C21.0509 12.0718 21.1383 11.2317 21.137 10.1617C21.137 6.91006 23.6564 4.79327 24.4704 4.1617C25.2843 4.79327 27.8037 6.91006 27.8037 10.1617C27.8024 11.2317 27.6395 12.0718 26.8867 12.8284C26.134 13.585 25.535 13.4937 24.4704 13.495Z" fill="#858593"/>
</svg>
