<svg width="24" height="25" viewBox="0 0 24 25" fill="none" xmlns="http://www.w3.org/2000/svg">
<path d="M17.6963 9.72125C17.7702 9.90591 17.7677 10.1124 17.6894 10.2952C17.6111 10.4781 17.4634 10.6223 17.2787 10.6962L13.1875 12.3325L15.6 15.55C15.7193 15.7091 15.7706 15.9092 15.7425 16.1061C15.7143 16.303 15.6091 16.4807 15.45 16.6C15.2909 16.7193 15.0908 16.7706 14.8939 16.7425C14.697 16.7143 14.5193 16.6091 14.4 16.45L12 13.25L9.6 16.45C9.54091 16.5288 9.46687 16.5952 9.38212 16.6454C9.29737 16.6955 9.20357 16.7285 9.10607 16.7425C9.00856 16.7564 8.90927 16.751 8.81386 16.7265C8.71845 16.7021 8.62879 16.6591 8.55 16.6C8.47121 16.5409 8.40482 16.4669 8.35464 16.3821C8.30446 16.2974 8.27147 16.2036 8.25754 16.1061C8.24361 16.0086 8.24902 15.9093 8.27347 15.8139C8.29791 15.7185 8.3409 15.6288 8.4 15.55L10.8125 12.3325L6.72125 10.6962C6.53811 10.6213 6.39203 10.4769 6.31484 10.2947C6.23766 10.1125 6.23562 9.90714 6.30917 9.72342C6.38273 9.5397 6.52591 9.3925 6.70752 9.31389C6.88914 9.23528 7.09446 9.23163 7.27875 9.30375L11.25 10.8925V7C11.25 6.80109 11.329 6.61032 11.4697 6.46967C11.6103 6.32902 11.8011 6.25 12 6.25C12.1989 6.25 12.3897 6.32902 12.5303 6.46967C12.671 6.61032 12.75 6.80109 12.75 7V10.8925L16.7213 9.30375C16.9059 9.22983 17.1124 9.23228 17.2952 9.31058C17.4781 9.38888 17.6223 9.5366 17.6963 9.72125ZM23.75 2V9C23.75 15.4925 20.61 19.425 17.975 21.58C15.1338 23.905 12.3163 24.6912 12.1975 24.7237C12.0682 24.759 11.9318 24.759 11.8025 24.7237C11.6775 24.6912 8.86625 23.905 6.025 21.58C3.39 19.425 0.25 15.4925 0.25 9V2C0.25 1.53587 0.434375 1.09075 0.762563 0.762563C1.09075 0.434375 1.53587 0.25 2 0.25H22C22.4641 0.25 22.9092 0.434375 23.2374 0.762563C23.5656 1.09075 23.75 1.53587 23.75 2ZM22.25 2C22.25 1.9337 22.2237 1.87011 22.1768 1.82322C22.1299 1.77634 22.0663 1.75 22 1.75H2C1.9337 1.75 1.87011 1.77634 1.82322 1.82322C1.77634 1.87011 1.75 1.9337 1.75 2V9C1.75 13.7188 3.4925 17.5487 6.93 20.3825C8.43764 21.6213 10.1547 22.5806 12 23.215C13.8451 22.58 15.562 21.6208 17.07 20.3825C20.5075 17.5487 22.25 13.7188 22.25 9V2Z" fill="white"/>
</svg>
