<svg width="32" height="32" viewBox="0 0 32 32" fill="none" xmlns="http://www.w3.org/2000/svg">
<g clip-path="url(#clip0_1804_1438)">
<path fill-rule="evenodd" clip-rule="evenodd" d="M22.5524 4.27529C22.6365 3.85137 22.8175 3.45264 23.0813 3.11024L23.0838 3.11024C23.3748 2.72911 23.7582 2.42836 24.1976 2.23631C24.637 2.04426 25.1181 1.96724 25.5955 2.01251C26.073 2.05777 26.531 2.22383 26.9265 2.49505C27.322 2.76626 27.642 3.1337 27.8563 3.56274C27.8635 3.57602 27.8698 3.58981 27.875 3.60399L29.94 8.45649C29.9549 8.49271 29.9675 8.52988 29.9775 8.56774L31.9775 16.5677C31.9925 16.6274 32 16.6887 32 16.7502L32 29.7502C32 30.2144 31.8156 30.6595 31.4875 30.9877C31.1593 31.3159 30.7141 31.5002 30.25 31.5002L25.25 31.5002C24.7859 31.5002 24.3408 31.3159 24.0126 30.9877C23.6844 30.6595 23.5 30.2144 23.5 29.7502L23.5 26.0602L20.5988 23.159C20.2493 22.8118 19.9722 22.3986 19.7836 21.9435C19.595 21.4884 19.4986 21.0004 19.5 20.5077L19.5 14.2502C19.5 13.7246 19.6275 13.2069 19.8715 12.7413C20.1155 12.2758 20.4688 11.8764 20.901 11.5774C21.3333 11.2783 21.8316 11.0886 22.3533 11.0244C22.875 10.9603 23.4044 11.0236 23.8963 11.209L22.5963 5.55399C22.4833 5.13683 22.4683 4.69921 22.5524 4.27529ZM25.25 30.0002L30.25 30.0002C30.3163 30.0002 30.3799 29.9739 30.4268 29.927C30.4737 29.8801 30.5 29.8165 30.5 29.7502L30.5 26.5002L25 26.5002L25 29.7502C25 29.8165 25.0264 29.8801 25.0732 29.927C25.1201 29.9739 25.1837 30.0002 25.25 30.0002ZM28.5338 8.99024L26.5 4.21524C26.3486 3.92572 26.0956 3.70234 25.7895 3.58801C25.4835 3.47368 25.1459 3.47646 24.8418 3.59582C24.5377 3.71518 24.2883 3.94271 24.1417 4.23469C23.9951 4.52667 23.9616 4.86253 24.0475 5.17774L24.055 5.20774L25.9813 13.5827C25.9938 13.6377 26.0001 13.6939 26 13.7502L26 17.7502C26 17.9492 25.921 18.1399 25.7803 18.2806C25.6397 18.4212 25.4489 18.5002 25.25 18.5002C25.0511 18.5002 24.8603 18.4212 24.7197 18.2806C24.579 18.1399 24.5 17.9492 24.5 17.7502L24.5 14.2502C24.5 13.7861 24.3156 13.341 23.9874 13.0128C23.6593 12.6846 23.2141 12.5002 22.75 12.5002C22.2859 12.5002 21.8408 12.6846 21.5126 13.0128C21.1844 13.341 21 13.7861 21 14.2502L21 20.5077C20.9991 20.8034 21.0569 21.0962 21.17 21.3694C21.283 21.6425 21.4492 21.8905 21.6588 22.099L24.5613 25.0002L30.5 25.0002L30.5 16.8427L28.5338 8.99024Z" fill="#858593"/>
<path fill-rule="evenodd" clip-rule="evenodd" d="M9.44758 4.27529C9.36345 3.85137 9.18246 3.45264 8.91874 3.11024L8.91624 3.11024C8.62516 2.72911 8.24185 2.42836 7.80241 2.23631C7.36298 2.04426 6.88188 1.96724 6.40445 2.01251C5.92702 2.05777 5.46898 2.22383 5.07347 2.49505C4.67796 2.76626 4.358 3.1337 4.14374 3.56274C4.13651 3.57602 4.13024 3.58981 4.12499 3.60399L2.05999 8.45649C2.04507 8.49271 2.03254 8.52988 2.02249 8.56774L0.0224883 16.5677C0.00753086 16.6274 -2.79628e-05 16.6887 -1.36604e-05 16.7502L-1.42286e-05 29.7502C-1.42489e-05 30.2144 0.184361 30.6595 0.512548 30.9877C0.840737 31.3159 1.28586 31.5002 1.74999 31.5002L6.74998 31.5002C7.21411 31.5002 7.65923 31.3159 7.98742 30.9877C8.31561 30.6595 8.49998 30.2144 8.49998 29.7502L8.49998 26.0602L11.4012 23.159C11.7507 22.8118 12.0278 22.3986 12.2164 21.9435C12.405 21.4884 12.5014 21.0004 12.5 20.5077L12.5 14.2502C12.5 13.7246 12.3725 13.2069 12.1285 12.7413C11.8845 12.2758 11.5312 11.8764 11.099 11.5774C10.6667 11.2783 10.1684 11.0886 9.6467 11.0244C9.12502 10.9603 8.59557 11.0236 8.10374 11.209L9.40373 5.55399C9.51671 5.13683 9.53172 4.69921 9.44758 4.27529ZM6.74998 30.0002L1.74999 30.0002C1.68368 30.0002 1.6201 29.9739 1.57321 29.927C1.52633 29.8801 1.49999 29.8165 1.49999 29.7502L1.49999 26.5002L6.99998 26.5002L6.99998 29.7502C6.99998 29.8165 6.97365 29.8801 6.92676 29.927C6.87988 29.9739 6.81629 30.0002 6.74998 30.0002ZM3.46624 8.99024L5.49999 4.21524C5.65139 3.92572 5.90442 3.70234 6.21048 3.58801C6.51655 3.47368 6.85406 3.47646 7.1582 3.59582C7.46234 3.71518 7.71166 3.94271 7.85826 4.23469C8.00487 4.52667 8.03842 4.86253 7.95249 5.17774L7.94499 5.20774L6.01873 13.5827C6.00621 13.6377 5.99992 13.6939 5.99998 13.7502L5.99998 17.7502C5.99998 17.9492 6.079 18.1399 6.21965 18.2806C6.36031 18.4212 6.55107 18.5002 6.74999 18.5002C6.9489 18.5002 7.13966 18.4212 7.28032 18.2806C7.42097 18.1399 7.49999 17.9492 7.49999 17.7502L7.49999 14.2502C7.49999 13.7861 7.68436 13.341 8.01255 13.0128C8.34074 12.6846 8.78586 12.5002 9.24999 12.5002C9.71411 12.5002 10.1592 12.6846 10.4874 13.0128C10.8156 13.341 11 13.7861 11 14.2502L11 20.5077C11.0009 20.8034 10.9431 21.0962 10.83 21.3694C10.717 21.6425 10.5508 21.8905 10.3412 22.099L7.43874 25.0002L1.49999 25.0002L1.49999 16.8427L3.46624 8.99024Z" fill="#858593"/>
<path d="M18.083 2.13163C17.4189 1.35954 16.671 0.664401 15.8533 0.0591245C15.7986 0.020641 15.7334 0 15.6667 0C15.5999 0 15.5347 0.020641 15.48 0.0591245C14.6623 0.664401 13.9145 1.35954 13.2503 2.13163C11.7781 3.83326 11 5.62379 11 7.3096C11 8.55357 11.4917 9.74659 12.3668 10.6262C13.242 11.5058 14.429 12 15.6667 12C16.9043 12 18.0913 11.5058 18.9665 10.6262C19.8417 9.74659 20.3333 8.55357 20.3333 7.3096C20.3333 5.62379 19.5552 3.83326 18.083 2.13163ZM15.6667 10.6667C14.6021 10.6654 13.7528 10.7566 13 10C12.2472 9.2434 12.3346 8.40333 12.3333 7.33333C12.3333 4.08169 14.8527 1.9649 15.6667 1.33333C16.4806 1.9649 19 4.08169 19 7.33333C18.9987 8.40333 18.8358 9.2434 18.083 10C17.3302 10.7566 16.7312 10.6654 15.6667 10.6667Z" fill="#858593"/>
</g>
<defs>
<clipPath id="clip0_1804_1438">
<rect width="32" height="32" fill="white"/>
</clipPath>
</defs>
</svg>
