<svg width="33" height="32" viewBox="0 0 33 32" fill="none" xmlns="http://www.w3.org/2000/svg">
<path d="M31.116 18.6C31.0372 18.6591 30.9476 18.7021 30.8522 18.7266C30.7567 18.751 30.6575 18.7564 30.5599 18.7425C30.4624 18.7286 30.3686 18.6956 30.2839 18.6454C30.1991 18.5952 30.1251 18.5288 30.066 18.4501C29.4401 17.6087 28.6254 16.926 27.6875 16.4571C26.7496 15.9881 25.7146 15.7459 24.666 15.75C24.4671 15.75 24.2763 15.671 24.1357 15.5304C23.995 15.3897 23.916 15.199 23.916 15C23.916 14.8011 23.995 14.6104 24.1357 14.4697C24.2763 14.3291 24.4671 14.25 24.666 14.25C25.2738 14.2499 25.8695 14.0793 26.3852 13.7577C26.9009 13.436 27.3161 12.9762 27.5837 12.4304C27.8512 11.8846 27.9602 11.2747 27.8985 10.67C27.8368 10.0653 27.6067 9.49005 27.2345 9.00956C26.8622 8.52907 26.3626 8.16261 25.7925 7.95179C25.2224 7.74097 24.6046 7.69426 24.0093 7.81694C23.414 7.93963 22.865 8.22681 22.4247 8.64585C21.9844 9.0649 21.6705 9.59902 21.5185 10.1875C21.4688 10.3802 21.3446 10.5451 21.1732 10.6462C21.0019 10.7472 20.7974 10.776 20.6048 10.7263C20.4122 10.6766 20.2472 10.5524 20.1461 10.381C20.0451 10.2096 20.0163 10.0052 20.066 9.81255C20.2545 9.07934 20.6156 8.40181 21.1191 7.83643C21.6225 7.27106 22.2539 6.83421 22.9604 6.56231C23.667 6.29042 24.4283 6.19134 25.1809 6.27334C25.9335 6.35534 26.6556 6.61604 27.287 7.03372C27.9184 7.45139 28.4409 8.01394 28.8108 8.67448C29.1807 9.33502 29.3873 10.0744 29.4135 10.831C29.4397 11.5876 29.2847 12.3395 28.9614 13.0241C28.638 13.7086 28.1558 14.3059 27.5548 14.7663C29.0337 15.3182 30.3222 16.2847 31.266 17.55C31.3251 17.6288 31.3681 17.7185 31.3926 17.8139C31.417 17.9093 31.4224 18.0086 31.4085 18.1061C31.3945 18.2036 31.3616 18.2974 31.3114 18.3822C31.2612 18.4669 31.1948 18.541 31.116 18.6ZM24.3148 26.625C24.3641 26.7103 24.3962 26.8045 24.4091 26.9021C24.4221 26.9998 24.4157 27.0991 24.3903 27.1943C24.3648 27.2895 24.3209 27.3787 24.261 27.4569C24.2011 27.5351 24.1263 27.6007 24.041 27.65C23.9273 27.7167 23.7978 27.7517 23.666 27.7513C23.5343 27.7514 23.4048 27.7168 23.2907 27.6509C23.1766 27.5851 23.0819 27.4904 23.016 27.3763C22.3641 26.2718 21.4354 25.3563 20.3216 24.7204C19.2078 24.0844 17.9473 23.7499 16.6648 23.7499C15.3822 23.7499 14.1218 24.0844 13.008 24.7204C11.8941 25.3563 10.9654 26.2718 10.3135 27.3763C10.2666 27.4659 10.2021 27.5451 10.1238 27.6092C10.0455 27.6732 9.95506 27.7208 9.85792 27.749C9.76077 27.7771 9.65893 27.7854 9.55852 27.7732C9.4581 27.761 9.36119 27.7286 9.27362 27.678C9.18605 27.6274 9.10962 27.5595 9.04893 27.4786C8.98824 27.3977 8.94455 27.3053 8.92049 27.2071C8.89642 27.1088 8.89248 27.0067 8.9089 26.9069C8.92531 26.8071 8.96175 26.7117 9.01602 26.6263C10.0376 24.8711 11.637 23.5253 13.541 22.8188C12.501 22.1435 11.7071 21.1501 11.2778 19.9867C10.8485 18.8233 10.8068 17.5523 11.159 16.3633C11.5111 15.1743 12.2382 14.131 13.2318 13.389C14.2254 12.6471 15.4322 12.2462 16.6723 12.2462C17.9123 12.2462 19.1192 12.6471 20.1127 13.389C21.1063 14.131 21.8334 15.1743 22.1856 16.3633C22.5377 17.5523 22.496 18.8233 22.0667 19.9867C21.6375 21.1501 20.8436 22.1435 19.8035 22.8188C21.7022 23.5277 23.2964 24.8728 24.3148 26.625ZM16.666 22.25C17.5066 22.25 18.3283 22.0008 19.0272 21.5338C19.7261 21.0668 20.2708 20.403 20.5925 19.6265C20.9142 18.8499 20.9983 17.9953 20.8344 17.1709C20.6704 16.3465 20.2656 15.5892 19.6712 14.9948C19.0768 14.4005 18.3196 13.9957 17.4951 13.8317C16.6707 13.6677 15.8162 13.7519 15.0396 14.0736C14.263 14.3952 13.5993 14.94 13.1323 15.6389C12.6653 16.3378 12.416 17.1595 12.416 18C12.416 19.1272 12.8638 20.2082 13.6608 21.0053C14.4578 21.8023 15.5388 22.25 16.666 22.25ZM9.41602 15C9.41602 14.8011 9.337 14.6104 9.19635 14.4697C9.05569 14.3291 8.86493 14.25 8.66602 14.25C8.05825 14.2499 7.46272 14.0793 6.94705 13.7576C6.43138 13.436 6.01623 12.9762 5.74874 12.4304C5.48125 11.8847 5.37215 11.2749 5.43381 10.6703C5.49548 10.0657 5.72545 9.49044 6.09761 9.00995C6.46976 8.52945 6.96919 8.16294 7.53919 7.95203C8.10918 7.74111 8.72689 7.69425 9.32217 7.81677C9.91746 7.93928 10.4665 8.22625 10.9068 8.6451C11.3472 9.06395 11.6613 9.5979 11.8135 10.1863C11.8381 10.2817 11.8813 10.3713 11.9406 10.45C11.9998 10.5286 12.074 10.5949 12.1588 10.6449C12.2437 10.6949 12.3375 10.7278 12.4351 10.7415C12.5326 10.7553 12.6319 10.7497 12.7273 10.7251C12.8226 10.7004 12.9122 10.6573 12.9909 10.598C13.0696 10.5388 13.1359 10.4646 13.1859 10.3798C13.2359 10.2949 13.2687 10.201 13.2825 10.1035C13.2962 10.006 13.2906 9.90667 13.266 9.8113C13.0775 9.07809 12.7164 8.40056 12.213 7.83518C11.7095 7.26981 11.0782 6.83296 10.3716 6.56107C9.66507 6.28917 8.90376 6.19009 8.15116 6.27209C7.39855 6.35409 6.67645 6.61479 6.04503 7.03247C5.41361 7.45014 4.89118 8.01269 4.52127 8.67323C4.15136 9.33376 3.94469 10.0731 3.91849 10.8298C3.89229 11.5864 4.04732 12.3383 4.37065 13.0228C4.69398 13.7074 5.17625 14.3047 5.77727 14.765C4.29816 15.3173 3.00963 16.2842 2.06602 17.55C2.00692 17.6288 1.96392 17.7185 1.93948 17.8139C1.91504 17.9093 1.90962 18.0086 1.92355 18.1061C1.93748 18.2036 1.97048 18.2974 2.02066 18.3822C2.07084 18.4669 2.13722 18.541 2.21602 18.6C2.29481 18.6591 2.38447 18.7021 2.47988 18.7266C2.57529 18.751 2.67458 18.7564 2.77208 18.7425C2.86958 18.7286 2.96339 18.6956 3.04814 18.6454C3.13289 18.5952 3.20692 18.5288 3.26602 18.4501C3.8919 17.6087 4.7066 16.926 5.64453 16.4571C6.58245 15.9881 7.61739 15.7459 8.66602 15.75C8.86493 15.75 9.05569 15.671 9.19635 15.5304C9.337 15.3897 9.41602 15.199 9.41602 15Z" fill="#858593"/>
</svg>
